<?xml version="1.0" encoding="UTF-8" standalone="no"?>
<svg width="102px" height="40px" viewBox="0 0 102 40" version="1.1" xmlns="http://www.w3.org/2000/svg" xmlns:xlink="http://www.w3.org/1999/xlink" xmlns:sketch="http://www.bohemiancoding.com/sketch/ns">
    <!-- Generator: Sketch 3.0.3 (7891) - http://www.bohemiancoding.com/sketch -->
    <title>contact</title>
    <desc>Created with Sketch.</desc>
    <defs></defs>
    <g id="Page-1" stroke="none" stroke-width="1" fill="none" fill-rule="evenodd" sketch:type="MSPage">
        <g id="Desktop-HD" sketch:type="MSArtboardGroup" transform="translate(-849.000000, -538.000000)" fill="#FFFFFF">
            <g id="contact" sketch:type="MSLayerGroup" transform="translate(850.000000, 538.000000)">
                <path d="M11.981,23.894 C11.687,24.373 11.336,24.807 10.932,25.199 C10.526,25.592 10.079,25.932 9.588,26.213 C9.097,26.494 8.568,26.711 8.005,26.866 C7.44,27.02 6.857,27.095 6.259,27.095 C5.324,27.095 4.45,26.918 3.634,26.563 C2.817,26.206 2.107,25.723 1.499,25.108 C0.892,24.495 0.411,23.779 0.054,22.963 C-0.302,22.147 -0.479,21.274 -0.479,20.341 C-0.479,19.41 -0.302,18.535 0.054,17.719 C0.411,16.903 0.892,16.188 1.499,15.574 C2.107,14.96 2.817,14.477 3.634,14.119 C4.45,13.765 5.324,13.586 6.259,13.586 C6.857,13.586 7.44,13.662 8.005,13.818 C8.568,13.969 9.097,14.19 9.588,14.47 C10.079,14.752 10.526,15.092 10.932,15.492 C11.336,15.891 11.687,16.328 11.981,16.807 L9.92,18.869 C9.773,18.501 9.58,18.162 9.34,17.857 C9.1,17.55 8.821,17.285 8.503,17.067 C8.184,16.845 7.834,16.672 7.453,16.551 C7.073,16.427 6.673,16.365 6.259,16.365 C5.717,16.365 5.204,16.471 4.721,16.678 C4.235,16.888 3.814,17.173 3.46,17.535 C3.104,17.895 2.821,18.316 2.613,18.795 C2.404,19.275 2.299,19.789 2.299,20.341 C2.299,20.893 2.404,21.41 2.613,21.887 C2.821,22.365 3.104,22.786 3.46,23.149 C3.814,23.512 4.235,23.795 4.721,24.004 C5.204,24.213 5.717,24.316 6.259,24.316 C6.673,24.316 7.073,24.256 7.453,24.134 C7.834,24.01 8.184,23.838 8.503,23.617 C8.821,23.397 9.1,23.137 9.34,22.834 C9.58,22.535 9.773,22.199 9.92,21.832 L11.981,23.894" id="Fill-28" sketch:type="MSShapeGroup"></path>
                <path d="M21.441,27.095 C20.509,27.095 19.635,26.918 18.818,26.563 C18.002,26.206 17.291,25.723 16.684,25.108 C16.075,24.495 15.594,23.779 15.238,22.963 C14.883,22.147 14.705,21.274 14.705,20.341 C14.705,19.41 14.883,18.535 15.238,17.719 C15.594,16.903 16.075,16.188 16.684,15.574 C17.291,14.96 18.002,14.477 18.818,14.119 C19.635,13.765 20.509,13.586 21.441,13.586 C22.373,13.586 23.247,13.765 24.064,14.119 C24.881,14.477 25.593,14.96 26.198,15.574 C26.807,16.188 27.288,16.903 27.644,17.719 C28,18.535 28.178,19.41 28.178,20.341 C28.178,21.274 28,22.147 27.644,22.963 C27.288,23.779 26.807,24.495 26.198,25.108 C25.593,25.723 24.881,26.206 24.064,26.563 C23.247,26.918 22.373,27.095 21.441,27.095 L21.441,27.095 Z M21.441,16.365 C20.89,16.365 20.373,16.471 19.895,16.678 C19.416,16.888 19,17.173 18.644,17.535 C18.288,17.895 18.007,18.316 17.797,18.795 C17.588,19.275 17.483,19.789 17.483,20.341 C17.483,20.893 17.588,21.41 17.797,21.887 C18.007,22.365 18.288,22.786 18.644,23.149 C19,23.512 19.416,23.795 19.895,24.004 C20.373,24.213 20.89,24.316 21.441,24.316 C21.981,24.316 22.49,24.213 22.97,24.004 C23.447,23.795 23.867,23.512 24.229,23.149 C24.592,22.786 24.876,22.365 25.085,21.887 C25.293,21.41 25.398,20.893 25.398,20.341 C25.398,19.789 25.293,19.275 25.085,18.795 C24.876,18.316 24.592,17.895 24.229,17.535 C23.867,17.173 23.447,16.888 22.97,16.678 C22.49,16.471 21.981,16.365 21.441,16.365 L21.441,16.365 Z" id="Fill-29" sketch:type="MSShapeGroup"></path>
                <path d="M40.934,13.606 L43.804,13.606 L43.804,27.114 L40.639,27.114 L34.821,18.353 L34.821,27.114 L31.95,27.114 L31.95,13.586 L35.115,13.586 L40.934,22.346 L40.934,13.606" id="Fill-30" sketch:type="MSShapeGroup"></path>
                <path d="M57.626,16.404 L54.497,16.404 L54.497,27.114 L51.681,27.114 L51.681,16.404 L48.552,16.404 L48.552,13.606 L57.626,13.606 L57.626,16.404" id="Fill-31" sketch:type="MSShapeGroup"></path>
                <path d="M69.735,27.114 L69.036,25.127 L63.59,25.127 L62.889,27.114 L59.834,27.114 L64.657,13.606 L67.969,13.606 L72.79,27.114 L69.735,27.114 L69.735,27.114 Z M64.583,22.346 L68.042,22.346 L66.312,17.507 L64.583,22.346 L64.583,22.346 Z" id="Fill-32" sketch:type="MSShapeGroup"></path>
                <path d="M87.773,23.894 C87.479,24.373 87.13,24.807 86.724,25.199 C86.318,25.592 85.871,25.932 85.38,26.213 C84.891,26.494 84.362,26.711 83.798,26.866 C83.233,27.02 82.649,27.095 82.049,27.095 C81.117,27.095 80.243,26.918 79.427,26.563 C78.61,26.206 77.898,25.723 77.293,25.108 C76.685,24.495 76.203,23.779 75.848,22.963 C75.491,22.147 75.313,21.274 75.313,20.341 C75.313,19.41 75.491,18.535 75.848,17.719 C76.203,16.903 76.685,16.188 77.293,15.574 C77.898,14.96 78.61,14.477 79.427,14.119 C80.243,13.765 81.117,13.586 82.049,13.586 C82.649,13.586 83.233,13.662 83.798,13.818 C84.362,13.969 84.891,14.19 85.38,14.47 C85.871,14.752 86.318,15.092 86.724,15.492 C87.13,15.891 87.479,16.328 87.773,16.807 L85.713,18.869 C85.565,18.501 85.371,18.162 85.132,17.857 C84.893,17.55 84.613,17.285 84.295,17.067 C83.976,16.845 83.626,16.672 83.246,16.551 C82.865,16.427 82.467,16.365 82.049,16.365 C81.509,16.365 80.997,16.471 80.512,16.678 C80.027,16.888 79.608,17.173 79.252,17.535 C78.896,17.895 78.613,18.316 78.405,18.795 C78.196,19.275 78.092,19.789 78.092,20.341 C78.092,20.893 78.196,21.41 78.405,21.887 C78.613,22.365 78.896,22.786 79.252,23.149 C79.608,23.512 80.027,23.795 80.512,24.004 C80.997,24.213 81.509,24.316 82.049,24.316 C82.467,24.316 82.865,24.256 83.246,24.134 C83.626,24.01 83.976,23.838 84.295,23.617 C84.613,23.397 84.893,23.137 85.132,22.834 C85.371,22.535 85.565,22.199 85.713,21.832 L87.773,23.894" id="Fill-33" sketch:type="MSShapeGroup"></path>
                <path d="M100.067,16.404 L96.938,16.404 L96.938,27.114 L94.123,27.114 L94.123,16.404 L90.994,16.404 L90.994,13.606 L100.067,13.606 L100.067,16.404" id="Fill-34" sketch:type="MSShapeGroup"></path>
                <path d="M-0.456,0 L100.091,0 L100.091,2.816 L-0.456,2.816 L-0.456,0 Z" id="Fill-35" sketch:type="MSShapeGroup"></path>
                <path d="M-0.456,37.185 L100.091,37.185 L100.091,40 L-0.456,40 L-0.456,37.185 Z" id="Fill-36" sketch:type="MSShapeGroup"></path>
            </g>
        </g>
    </g>
</svg>