<?xml version="1.0" encoding="UTF-8" standalone="no"?>
<svg width="822px" height="306px" viewBox="0 0 822 306" version="1.1" xmlns="http://www.w3.org/2000/svg" xmlns:xlink="http://www.w3.org/1999/xlink" xmlns:sketch="http://www.bohemiancoding.com/sketch/ns">
    <!-- Generator: Sketch 3.0.3 (7891) - http://www.bohemiancoding.com/sketch -->
    <title>logo</title>
    <desc>Created with Sketch.</desc>
    <defs></defs>
    <g id="Page-1" stroke="none" stroke-width="1" fill="none" fill-rule="evenodd" sketch:type="MSPage">
        <g id="Desktop-HD" sketch:type="MSArtboardGroup" transform="translate(-308.000000, -163.000000)" fill="#FFFFFF">
            <g id="logo" sketch:type="MSLayerGroup" transform="translate(309.000000, 164.000000)">
                <path d="M0.574,-0.349 L0.574,117.858 L120.03,117.858 L0.574,-0.349" id="Fill-2" sketch:type="MSShapeGroup"></path>
                <path d="M211.55,28.988 L211.55,117.858 L301.36,117.858 L211.55,28.988" id="Fill-3" sketch:type="MSShapeGroup"></path>
                <path d="M462.244,118.328 L551.113,118.328 L551.113,28.519 L462.244,118.328" id="Fill-4" sketch:type="MSShapeGroup"></path>
                <path d="M358.983,122.56 L305.596,122.56 L305.596,176.511 L358.983,122.56" id="Fill-5" sketch:type="MSShapeGroup"></path>
                <path d="M614.519,190.31 L556.182,190.31 L556.182,249.263 L614.519,190.31" id="Fill-6" sketch:type="MSShapeGroup"></path>
                <path d="M307.073,304.32 L352.136,235.362 L307.073,190.3 L307.073,304.32" id="Fill-7" sketch:type="MSShapeGroup"></path>
                <path d="M180.822,302.357 L180.822,123.277 L-0.152,123.277 L180.822,302.357" id="Fill-8" sketch:type="MSShapeGroup"></path>
                <path d="M175.945,304.485 L87.856,216.398 L-0.067,304.32 L175.945,304.485" id="Fill-9" sketch:type="MSShapeGroup"></path>
                <path d="M312.257,302.982 L431.479,302.982 L431.479,123.458 L312.257,302.982" id="Fill-10" sketch:type="MSShapeGroup"></path>
                <path d="M182.26,123.277 L301.568,123.277 L301.568,304.32 L182.26,123.277" id="Fill-11" sketch:type="MSShapeGroup"></path>
                <path d="M431.804,123.277 L551.113,123.277 L551.113,304.32 L431.804,123.277" id="Fill-12" sketch:type="MSShapeGroup"></path>
                <path d="M592.332,118.328 L709.345,118.328 L709.345,0.077 L592.332,118.328" id="Fill-13" sketch:type="MSShapeGroup"></path>
                <path d="M772.751,190.31 L714.414,190.31 L714.414,249.263 L772.751,190.31" id="Fill-14" sketch:type="MSShapeGroup"></path>
                <path d="M590.036,123.277 L709.345,123.277 L709.345,304.32 L590.036,123.277" id="Fill-15" sketch:type="MSShapeGroup"></path>
                <path d="M794.139,203.54 C794.139,196.233 800.063,190.31 807.369,190.31 C814.677,190.31 820.602,196.233 820.602,203.54 C820.602,210.849 814.677,216.77 807.369,216.77 C800.063,216.77 794.139,210.849 794.139,203.54" id="Fill-16" sketch:type="MSShapeGroup"></path>
            </g>
        </g>
    </g>
</svg>