<?xml version="1.0" encoding="UTF-8" standalone="no"?>
<svg width="40px" height="40px" viewBox="0 0 40 40" version="1.1" xmlns="http://www.w3.org/2000/svg" xmlns:xlink="http://www.w3.org/1999/xlink" xmlns:sketch="http://www.bohemiancoding.com/sketch/ns">
    <!-- Generator: Sketch 3.0.3 (7891) - http://www.bohemiancoding.com/sketch -->
    <title>soundcloud</title>
    <desc>Created with Sketch.</desc>
    <defs></defs>
    <g id="Page-1" stroke="none" stroke-width="1" fill="none" fill-rule="evenodd" sketch:type="MSPage">
        <g id="Desktop-HD" sketch:type="MSArtboardGroup" transform="translate(-670.000000, -538.000000)" fill="#FFFFFF">
            <g id="soundcloud" sketch:type="MSLayerGroup" transform="translate(670.000000, 538.000000)">
                <path d="M0,0 L40,0 L40,40 L0,40 L0,0 Z M5.81,20.508 C5.753,20.508 5.709,20.546 5.699,20.612 L5.5,22.144 L5.699,23.648 C5.709,23.713 5.753,23.755 5.81,23.755 C5.864,23.755 5.913,23.713 5.921,23.653 L6.158,22.144 L5.921,20.612 C5.913,20.546 5.864,20.508 5.81,20.508 Z M6.943,19.667 C6.935,19.604 6.887,19.558 6.828,19.558 C6.769,19.558 6.727,19.604 6.716,19.667 L6.445,22.144 L6.716,24.566 C6.727,24.63 6.769,24.677 6.828,24.677 C6.887,24.677 6.935,24.63 6.943,24.566 L7.253,22.144 L6.943,19.667 Z M11.213,17.386 C11.105,17.386 11.014,17.474 11.004,17.591 L10.787,22.144 L11.004,25.088 C11.014,25.204 11.105,25.294 11.213,25.294 C11.326,25.294 11.414,25.204 11.424,25.088 L11.666,22.144 L11.424,17.591 C11.414,17.474 11.326,17.386 11.213,17.386 Z M9.004,18.968 C8.922,18.968 8.848,19.035 8.844,19.128 L8.6,22.144 L8.844,25.064 C8.848,25.155 8.922,25.223 9.004,25.223 C9.09,25.223 9.16,25.155 9.168,25.064 L9.443,22.144 L9.168,19.128 C9.16,19.035 9.09,18.968 9.004,18.968 Z M13.457,25.294 C13.598,25.294 13.709,25.183 13.714,25.037 L13.927,22.147 L13.714,16.083 C13.71,15.943 13.598,15.831 13.457,15.831 C13.32,15.831 13.211,15.943 13.206,16.084 L13.016,22.147 L13.206,25.038 C13.211,25.183 13.32,25.294 13.457,25.294 Z M18.055,25.308 C18.246,25.308 18.402,25.154 18.406,24.96 L18.553,22.148 L18.406,15.149 C18.402,14.956 18.246,14.801 18.055,14.801 C17.865,14.801 17.709,14.956 17.707,15.149 L17.576,22.147 L17.707,24.96 C17.709,25.154 17.865,25.308 18.055,25.308 Z M15.738,25.295 C15.904,25.295 16.037,25.164 16.044,24.994 L16.044,24.995 L16.221,22.148 L16.044,16.042 C16.037,15.871 15.904,15.74 15.738,15.74 C15.572,15.74 15.437,15.871 15.437,16.042 L15.277,22.148 L15.437,24.995 C15.437,25.164 15.572,25.295 15.738,25.295 Z M10.103,25.271 C10.201,25.271 10.282,25.192 10.287,25.088 L10.551,22.144 L10.287,19.343 C10.282,19.241 10.201,19.162 10.103,19.162 C10.006,19.162 9.926,19.241 9.92,19.348 L9.692,22.144 L9.92,25.088 C9.926,25.192 10.006,25.271 10.103,25.271 Z M7.912,25.107 C7.982,25.107 8.041,25.054 8.049,24.974 L8.345,22.144 L8.049,19.212 C8.041,19.13 7.982,19.077 7.912,19.077 C7.84,19.077 7.779,19.13 7.773,19.212 L7.519,22.144 L7.773,24.97 C7.779,25.054 7.84,25.107 7.912,25.107 Z M16.894,15.942 C16.715,15.942 16.57,16.083 16.57,16.264 L16.423,22.148 L16.57,24.981 C16.57,25.158 16.715,25.301 16.894,25.301 C17.072,25.301 17.216,25.158 17.219,24.978 L17.219,24.981 L17.383,22.148 L17.219,16.264 C17.216,16.083 17.072,15.942 16.894,15.942 Z M12.332,25.301 C12.457,25.301 12.558,25.199 12.565,25.068 L12.791,22.147 L12.565,16.553 C12.558,16.422 12.457,16.32 12.332,16.32 C12.207,16.32 12.104,16.422 12.103,16.553 L11.898,22.147 L12.103,25.068 C12.104,25.199 12.207,25.301 12.332,25.301 Z M14.875,25.024 L15.07,22.147 L14.875,15.883 C14.869,15.726 14.745,15.602 14.596,15.602 C14.443,15.602 14.318,15.726 14.317,15.883 L14.142,22.147 L14.317,25.024 C14.318,25.178 14.443,25.301 14.596,25.301 C14.745,25.301 14.869,25.178 14.875,25.024 Z M29.67,18.537 C29.207,18.537 28.763,18.63 28.359,18.799 C28.086,15.743 25.525,13.345 22.402,13.345 C21.636,13.345 20.893,13.499 20.233,13.751 C19.977,13.852 19.908,13.953 19.905,14.15 L19.905,24.909 C19.908,25.115 20.07,25.29 20.271,25.308 C20.282,25.312 29.605,25.313 29.67,25.313 C31.543,25.313 33.059,23.795 33.059,21.927 C33.059,20.052 31.543,18.537 29.67,18.537 Z M19.213,14.139 C19.012,14.139 18.843,14.31 18.84,14.512 L18.687,22.148 L18.84,24.919 C18.843,25.124 19.012,25.29 19.213,25.29 C19.417,25.29 19.585,25.124 19.588,24.915 L19.588,24.919 L19.752,22.148 L19.588,14.512 C19.585,14.31 19.417,14.139 19.213,14.139 Z" id="Fill-21" sketch:type="MSShapeGroup"></path>
            </g>
        </g>
    </g>
</svg>