<?xml version="1.0" encoding="UTF-8" standalone="no"?>
<svg width="40px" height="40px" viewBox="0 0 40 40" version="1.1" xmlns="http://www.w3.org/2000/svg" xmlns:xlink="http://www.w3.org/1999/xlink" xmlns:sketch="http://www.bohemiancoding.com/sketch/ns">
    <!-- Generator: Sketch 3.0.3 (7891) - http://www.bohemiancoding.com/sketch -->
    <title>twitter</title>
    <desc>Created with Sketch.</desc>
    <defs></defs>
    <g id="Page-1" stroke="none" stroke-width="1" fill="none" fill-rule="evenodd" sketch:type="MSPage">
        <g id="Desktop-HD" sketch:type="MSArtboardGroup" transform="translate(-550.000000, -538.000000)" fill="#FFFFFF">
            <g id="twitter" sketch:type="MSLayerGroup" transform="translate(550.000000, 538.000000)">
                <path d="M0,0 L40,0 L40,40 L0,40 L0,0 Z M30.724,18.856 C29.967,18.986 28.866,18.853 28.282,18.609 C29.493,18.509 30.313,17.96 30.63,17.211 C30.193,17.479 28.836,17.774 28.088,17.493 C28.052,17.317 28.011,17.149 27.971,16.999 C27.402,14.902 25.447,13.21 23.401,13.415 C23.565,13.351 23.734,13.288 23.901,13.231 C24.125,13.152 25.448,12.933 25.24,12.468 C25.063,12.059 23.449,12.777 23.145,12.872 C23.547,12.722 24.21,12.462 24.281,11.999 C23.666,12.083 23.062,12.374 22.597,12.799 C22.765,12.617 22.893,12.397 22.919,12.158 C21.28,13.208 20.32,15.322 19.547,17.372 C18.936,16.782 18.394,16.319 17.913,16.058 C16.553,15.33 14.93,14.57 12.383,13.622 C12.303,14.465 12.797,15.589 14.222,16.336 C13.915,16.295 13.35,16.388 12.899,16.495 C13.083,17.463 13.683,18.259 15.313,18.645 C14.568,18.692 14.184,18.864 13.835,19.227 C14.173,19.902 15.003,20.691 16.488,20.53 C14.834,21.241 15.814,22.566 17.161,22.37 C14.865,24.745 11.243,24.569 9.165,22.581 C14.592,29.987 26.393,26.962 28.151,19.829 C29.47,19.841 30.244,19.374 30.724,18.856 Z" id="Fill-17" sketch:type="MSShapeGroup"></path>
            </g>
        </g>
    </g>
</svg>