<?xml version="1.0" encoding="UTF-8" standalone="no"?>
<svg width="40px" height="40px" viewBox="0 0 40 40" version="1.1" xmlns="http://www.w3.org/2000/svg" xmlns:xlink="http://www.w3.org/1999/xlink" xmlns:sketch="http://www.bohemiancoding.com/sketch/ns">
    <!-- Generator: Sketch 3.0.3 (7891) - http://www.bohemiancoding.com/sketch -->
    <title>youtube</title>
    <desc>Created with Sketch.</desc>
    <defs></defs>
    <g id="Page-1" stroke="none" stroke-width="1" fill="none" fill-rule="evenodd" sketch:type="MSPage">
        <g id="Desktop-HD" sketch:type="MSArtboardGroup" transform="translate(-790.000000, -538.000000)" fill="#FFFFFF">
            <g id="youtube" sketch:type="MSLayerGroup" transform="translate(790.000000, 538.000000)">
                <path d="M0,0 L40,0 L40,40 L0,40 L0,0 Z M22.49,7.531 L23.998,7.531 L23.998,12.286 C23.998,13.196 24.026,13.171 24.057,13.286 C24.088,13.405 24.199,13.689 24.553,13.689 C24.927,13.689 25.032,13.391 25.06,13.263 C25.083,13.152 25.111,13.173 25.111,12.221 L25.111,7.531 L26.619,7.531 L26.619,14.665 L25.092,14.665 L25.11,14.305 L24.646,14.111 C24.529,14.352 24.393,14.523 24.225,14.642 C24.056,14.759 23.865,14.819 23.64,14.819 C23.381,14.819 23.172,14.762 23.01,14.652 C22.852,14.544 22.743,14.411 22.672,14.242 C22.592,14.054 22.544,13.85 22.523,13.652 C22.503,13.422 22.49,12.946 22.49,12.235 L22.49,7.531 Z M17.252,10.495 C17.252,9.751 17.314,9.179 17.436,8.77 C17.549,8.392 17.746,8.096 18.047,7.867 C18.35,7.63 18.75,7.511 19.239,7.511 C19.656,7.511 20.014,7.595 20.305,7.747 C20.588,7.897 20.807,8.096 20.954,8.324 C21.109,8.567 21.213,8.814 21.269,9.062 C21.328,9.321 21.357,9.742 21.357,10.309 L21.357,11.565 C21.357,12.302 21.328,12.839 21.275,13.173 C21.224,13.476 21.112,13.766 20.941,14.032 C20.773,14.292 20.564,14.489 20.296,14.614 C20.018,14.745 19.694,14.813 19.328,14.813 C18.911,14.813 18.558,14.755 18.275,14.635 C18.011,14.532 17.809,14.375 17.67,14.171 C17.525,13.954 17.422,13.689 17.356,13.383 C17.29,13.052 17.253,12.537 17.253,11.849 L17.252,10.495 L17.252,10.495 Z M13.729,4.989 L14.954,8.933 C15.168,7.9 15.58,6.473 15.908,4.989 L17.02,4.989 L15.59,10.616 L15.58,10.66 L15.58,14.662 L14.275,14.662 L14.275,10.66 L14.264,10.617 L12.617,4.989 L13.729,4.989 L13.729,4.989 Z M31.471,27.836 C31.275,29.609 29.7,31.065 27.935,31.184 C22.731,31.41 17.542,31.41 12.342,31.184 C10.574,31.065 9,29.609 8.805,27.836 C8.611,25.026 8.611,22.264 8.805,19.46 C8.996,17.684 10.574,16.234 12.342,16.109 C17.542,15.886 22.731,15.886 27.935,16.109 C29.701,16.234 31.275,17.684 31.471,19.46 C31.665,22.264 31.665,25.026 31.471,27.836 L31.471,27.836 Z M19.304,13.961 C19.523,13.961 19.695,13.829 19.771,13.601 C19.807,13.497 19.851,13.298 19.851,12.759 L19.851,9.669 C19.851,9.044 19.812,8.843 19.777,8.728 C19.7,8.495 19.529,8.361 19.311,8.361 C19.094,8.361 18.923,8.491 18.842,8.722 C18.803,8.832 18.762,9.037 18.762,9.669 L18.762,12.675 C18.762,13.266 18.804,13.47 18.842,13.583 C18.92,13.822 19.088,13.961 19.304,13.961 L19.304,13.961 Z M10.832,19.997 L12.305,19.997 L12.305,28.278 L13.847,28.278 L13.847,19.997 L15.324,19.997 L15.324,18.427 L10.832,18.427 L10.832,19.997 L10.832,19.997 Z M18.13,25.451 C18.13,26.343 18.104,26.562 18.083,26.655 C18.029,26.885 17.846,27.024 17.588,27.024 C17.34,27.024 17.158,26.892 17.102,26.672 C17.076,26.578 17.047,26.359 17.047,25.513 L17.047,20.805 L15.588,20.805 L15.588,25.935 C15.588,26.608 15.598,27.059 15.617,27.282 C15.64,27.486 15.69,27.687 15.773,27.876 C15.847,28.046 15.958,28.179 16.113,28.278 C16.262,28.382 16.464,28.431 16.705,28.431 C16.91,28.431 17.09,28.378 17.246,28.273 C17.409,28.162 17.553,27.989 17.666,27.759 L18.13,27.872 L18.108,28.289 L19.59,28.289 L19.59,20.805 L18.131,20.805 L18.13,25.451 L18.13,25.451 Z M24.592,21.185 C24.512,21.029 24.396,20.91 24.242,20.818 C24.084,20.729 23.887,20.685 23.664,20.685 C23.477,20.685 23.308,20.731 23.144,20.832 C22.98,20.939 22.824,21.091 22.685,21.312 L22.239,21.999 L22.239,18.431 L20.777,18.431 L20.777,28.283 L22.156,28.283 L22.243,27.842 L22.36,27.232 L22.688,27.756 C22.83,27.993 22.988,28.165 23.156,28.278 C23.316,28.385 23.479,28.44 23.661,28.44 C23.917,28.44 24.133,28.349 24.32,28.172 C24.516,27.982 24.638,27.769 24.689,27.508 C24.75,27.223 24.777,26.767 24.777,26.799 L24.777,22.888 C24.777,22.905 24.834,22.499 24.75,21.691 C24.733,21.525 24.68,21.358 24.592,21.185 L24.592,21.185 Z M23.32,25.525 C23.32,26.224 23.283,26.438 23.256,26.55 C23.188,26.792 23.015,26.932 22.781,26.932 C22.557,26.932 22.383,26.799 22.313,26.562 C22.279,26.458 22.24,26.247 22.24,25.61 L22.24,23.628 C22.24,22.962 22.274,22.761 22.306,22.667 C22.373,22.448 22.547,22.314 22.769,22.314 C23,22.314 23.176,22.454 23.249,22.691 C23.28,22.794 23.323,23.001 23.323,23.632 L23.323,25.529 L23.32,25.525 L23.32,25.525 Z M27.313,24.765 L29.836,24.765 L29.836,23.952 C29.836,23.213 29.768,22.37 29.631,21.978 C29.504,21.599 29.289,21.305 28.967,21.078 C28.66,20.857 28.253,20.743 27.764,20.743 C27.365,20.743 27.011,20.837 26.708,21.021 C26.406,21.206 26.195,21.471 26.063,21.824 C25.924,22.191 25.849,22.711 25.849,23.638 L25.849,25.935 C25.849,26.233 25.885,26.667 25.946,26.955 C26.007,27.232 26.118,27.486 26.274,27.719 C26.422,27.935 26.639,28.109 26.913,28.237 C27.192,28.368 27.525,28.437 27.896,28.437 C28.276,28.437 28.595,28.368 28.836,28.242 C29.08,28.112 29.28,27.916 29.441,27.658 C29.607,27.389 29.716,27.129 29.76,26.9 C29.809,26.655 29.832,26.291 29.832,25.822 L29.832,25.472 L28.473,25.472 L28.473,26.277 C28.473,26.702 28.445,26.981 28.385,27.149 C28.3,27.374 28.109,27.508 27.855,27.508 C27.637,27.508 27.467,27.398 27.389,27.202 C27.351,27.111 27.309,26.946 27.309,26.431 L27.309,24.765 L27.313,24.765 L27.313,24.765 Z M27.313,23.715 L27.313,22.868 C27.313,22.247 27.344,22.342 27.373,22.258 C27.439,22.058 27.613,21.942 27.855,21.942 C28.076,21.942 28.242,22.066 28.309,22.288 C28.336,22.377 28.371,22.29 28.371,22.868 L28.371,23.952 L27.315,23.952 L27.313,23.715 L27.313,23.715 Z" id="Fill-26" sketch:type="MSShapeGroup"></path>
            </g>
        </g>
    </g>
</svg>